<svg xmlns="http://www.w3.org/2000/svg" viewBox="0 0 410 404"><path fill="#41D1FF" d="M399.641 59.5246L215.643 388.545C211.844 395.338 202.084 395.378 198.228 388.618L10.5817 59.5563C6.38087 52.1896 12.6802 43.2665 21.0281 44.7586L205.223 77.6824C206.398 77.8924 207.601 77.8904 208.776 77.6763L389.119 44.8058C397.439 43.2894 403.767 52.1434 399.641 59.5246Z"/><path fill="#BD34FE" d="M292.965 1.5744L156.801 28.2552C154.563 28.6937 152.906 30.5903 152.771 32.8664L144.395 174.33C144.198 177.662 147.258 180.248 150.51 179.498L188.42 170.749C191.967 169.931 195.172 173.055 194.443 176.622L183.18 231.775C182.422 235.487 185.907 238.664 189.532 237.612L212.947 230.769C216.577 229.716 220.065 232.9 219.301 236.617L201.398 322.629C200.278 328.075 207.486 331.09 210.545 326.404L212.238 323.803L317.32 148.815C319.427 145.322 316.526 141.026 312.5 141.573L273.708 146.833C270.079 147.327 267.269 143.786 268.598 140.36L297.219 65.9979C298.549 62.5636 295.735 59.0201 292.104 59.5197L285.617 60.4008C282.111 60.8817 279.336 57.5079 280.435 54.1276L293.926 12.5061C295.017 9.15115 292.298 5.79749 288.783 6.20993Z"/></svg>
